<?xml version="1.0" encoding="UTF-8"?>
<svg xmlns="http://www.w3.org/2000/svg" xmlns:xlink="http://www.w3.org/1999/xlink" width="756pt" height="504pt" viewBox="0 0 756 504" version="1.1">
<g id="surface9">
<rect x="0" y="0" width="756" height="504" style="fill:rgb(100%,100%,100%);fill-opacity:1;stroke:none;"/>
<path style="fill-rule:nonzero;fill:rgb(0%,0%,0%);fill-opacity:1;stroke-width:0.708661;stroke-linecap:round;stroke-linejoin:round;stroke:rgb(0%,0%,0%);stroke-opacity:1;stroke-miterlimit:10;" d="M 538.832031 122.277344 C 538.832031 127.730469 530.65625 127.730469 530.65625 122.277344 C 530.65625 116.828125 538.832031 116.828125 538.832031 122.277344 "/>
<path style="fill-rule:nonzero;fill:rgb(0%,0%,0%);fill-opacity:1;stroke-width:0.708661;stroke-linecap:round;stroke-linejoin:round;stroke:rgb(0%,0%,0%);stroke-opacity:1;stroke-miterlimit:10;" d="M 646.496094 252.457031 C 646.496094 257.910156 638.320312 257.910156 638.320312 252.457031 C 638.320312 247.007812 646.496094 247.007812 646.496094 252.457031 "/>
<path style="fill-rule:nonzero;fill:rgb(0%,0%,0%);fill-opacity:1;stroke-width:0.708661;stroke-linecap:round;stroke-linejoin:round;stroke:rgb(0%,0%,0%);stroke-opacity:1;stroke-miterlimit:10;" d="M 566.695312 233.578125 C 566.695312 239.03125 558.519531 239.03125 558.519531 233.578125 C 558.519531 228.128906 566.695312 228.128906 566.695312 233.578125 "/>
<path style="fill-rule:nonzero;fill:rgb(0%,0%,0%);fill-opacity:1;stroke-width:0.708661;stroke-linecap:round;stroke-linejoin:round;stroke:rgb(0%,0%,0%);stroke-opacity:1;stroke-miterlimit:10;" d="M 653.695312 28.5625 C 653.695312 34.015625 645.515625 34.015625 645.515625 28.5625 C 645.515625 23.109375 653.695312 23.109375 653.695312 28.5625 "/>
<path style="fill-rule:nonzero;fill:rgb(0%,0%,0%);fill-opacity:1;stroke-width:0.708661;stroke-linecap:round;stroke-linejoin:round;stroke:rgb(0%,0%,0%);stroke-opacity:1;stroke-miterlimit:10;" d="M 355.007812 275.769531 C 355.007812 281.222656 346.828125 281.222656 346.828125 275.769531 C 346.828125 270.316406 355.007812 270.316406 355.007812 275.769531 "/>
<path style="fill-rule:nonzero;fill:rgb(0%,0%,0%);fill-opacity:1;stroke-width:0.708661;stroke-linecap:round;stroke-linejoin:round;stroke:rgb(0%,0%,0%);stroke-opacity:1;stroke-miterlimit:10;" d="M 153.324219 329.082031 C 153.324219 334.535156 145.144531 334.535156 145.144531 329.082031 C 145.144531 323.628906 153.324219 323.628906 153.324219 329.082031 "/>
<path style="fill-rule:nonzero;fill:rgb(0%,0%,0%);fill-opacity:1;stroke-width:0.708661;stroke-linecap:round;stroke-linejoin:round;stroke:rgb(0%,0%,0%);stroke-opacity:1;stroke-miterlimit:10;" d="M 263.667969 196.90625 C 263.667969 202.355469 255.492188 202.355469 255.492188 196.90625 C 255.492188 191.453125 263.667969 191.453125 263.667969 196.90625 "/>
<path style="fill-rule:nonzero;fill:rgb(0%,0%,0%);fill-opacity:1;stroke-width:0.708661;stroke-linecap:round;stroke-linejoin:round;stroke:rgb(0%,0%,0%);stroke-opacity:1;stroke-miterlimit:10;" d="M 391.675781 359.910156 C 391.675781 365.363281 383.496094 365.363281 383.496094 359.910156 C 383.496094 354.460938 391.675781 354.460938 391.675781 359.910156 "/>
<path style="fill-rule:nonzero;fill:rgb(0%,0%,0%);fill-opacity:1;stroke-width:0.708661;stroke-linecap:round;stroke-linejoin:round;stroke:rgb(0%,0%,0%);stroke-opacity:1;stroke-miterlimit:10;" d="M 543.5625 379.710938 C 543.5625 385.164062 535.382812 385.164062 535.382812 379.710938 C 535.382812 374.257812 543.5625 374.257812 543.5625 379.710938 "/>
<path style="fill-rule:nonzero;fill:rgb(0%,0%,0%);fill-opacity:1;stroke-width:0.708661;stroke-linecap:round;stroke-linejoin:round;stroke:rgb(0%,0%,0%);stroke-opacity:1;stroke-miterlimit:10;" d="M 725.726562 288.808594 C 725.726562 294.261719 717.546875 294.261719 717.546875 288.808594 C 717.546875 283.359375 725.726562 283.359375 725.726562 288.808594 "/>
<path style="fill-rule:nonzero;fill:rgb(0%,0%,0%);fill-opacity:1;stroke-width:0.708661;stroke-linecap:round;stroke-linejoin:round;stroke:rgb(0%,0%,0%);stroke-opacity:1;stroke-miterlimit:10;" d="M 61.671875 264.816406 C 61.671875 270.265625 53.492188 270.265625 53.492188 264.816406 C 53.492188 259.363281 61.671875 259.363281 61.671875 264.816406 "/>
<path style="fill-rule:nonzero;fill:rgb(0%,0%,0%);fill-opacity:1;stroke-width:0.708661;stroke-linecap:round;stroke-linejoin:round;stroke:rgb(0%,0%,0%);stroke-opacity:1;stroke-miterlimit:10;" d="M 143.59375 472.519531 C 143.59375 477.972656 135.414062 477.972656 135.414062 472.519531 C 135.414062 467.070312 143.59375 467.070312 143.59375 472.519531 "/>
<path style="fill-rule:nonzero;fill:rgb(0%,0%,0%);fill-opacity:1;stroke-width:0.708661;stroke-linecap:round;stroke-linejoin:round;stroke:rgb(0%,0%,0%);stroke-opacity:1;stroke-miterlimit:10;" d="M 549.109375 138.425781 C 549.109375 143.878906 540.929688 143.878906 540.929688 138.425781 C 540.929688 132.976562 549.109375 132.976562 549.109375 138.425781 "/>
<path style="fill-rule:nonzero;fill:rgb(0%,0%,0%);fill-opacity:1;stroke-width:0.708661;stroke-linecap:round;stroke-linejoin:round;stroke:rgb(0%,0%,0%);stroke-opacity:1;stroke-miterlimit:10;" d="M 38.453125 407.855469 C 38.453125 413.308594 30.273438 413.308594 30.273438 407.855469 C 30.273438 402.402344 38.453125 402.402344 38.453125 407.855469 "/>
<path style="fill-rule:nonzero;fill:rgb(0%,0%,0%);fill-opacity:1;stroke-width:0.708661;stroke-linecap:round;stroke-linejoin:round;stroke:rgb(0%,0%,0%);stroke-opacity:1;stroke-miterlimit:10;" d="M 309.625 350.191406 C 309.625 355.644531 301.449219 355.644531 301.449219 350.191406 C 301.449219 344.742188 309.625 344.742188 309.625 350.191406 "/>
<path style="fill-rule:nonzero;fill:rgb(0%,0%,0%);fill-opacity:1;stroke-width:0.708661;stroke-linecap:round;stroke-linejoin:round;stroke:rgb(0%,0%,0%);stroke-opacity:1;stroke-miterlimit:10;" d="M 359.1875 217.292969 C 359.1875 222.746094 351.011719 222.746094 351.011719 217.292969 C 351.011719 211.84375 359.1875 211.84375 359.1875 217.292969 "/>
<path style="fill-rule:nonzero;fill:rgb(0%,0%,0%);fill-opacity:1;stroke-width:0.708661;stroke-linecap:round;stroke-linejoin:round;stroke:rgb(0%,0%,0%);stroke-opacity:1;stroke-miterlimit:10;" d="M 307.5 92.589844 C 307.5 98.039062 299.320312 98.039062 299.320312 92.589844 C 299.320312 87.136719 307.5 87.136719 307.5 92.589844 "/>
<path style="fill-rule:nonzero;fill:rgb(0%,0%,0%);fill-opacity:1;stroke-width:0.708661;stroke-linecap:round;stroke-linejoin:round;stroke:rgb(0%,0%,0%);stroke-opacity:1;stroke-miterlimit:10;" d="M 317.46875 103.539062 C 317.46875 108.988281 309.292969 108.988281 309.292969 103.539062 C 309.292969 98.085938 317.46875 98.085938 317.46875 103.539062 "/>
<path style="fill-rule:nonzero;fill:rgb(0%,0%,0%);fill-opacity:1;stroke-width:0.708661;stroke-linecap:round;stroke-linejoin:round;stroke:rgb(0%,0%,0%);stroke-opacity:1;stroke-miterlimit:10;" d="M 162.078125 230.953125 C 162.078125 236.402344 153.898438 236.402344 153.898438 230.953125 C 153.898438 225.5 162.078125 225.5 162.078125 230.953125 "/>
<path style="fill-rule:nonzero;fill:rgb(0%,0%,0%);fill-opacity:1;stroke-width:0.708661;stroke-linecap:round;stroke-linejoin:round;stroke:rgb(0%,0%,0%);stroke-opacity:1;stroke-miterlimit:10;" d="M 699.253906 99.625 C 699.253906 105.078125 691.074219 105.078125 691.074219 99.625 C 691.074219 94.175781 699.253906 94.175781 699.253906 99.625 "/>
<path style="fill-rule:nonzero;fill:rgb(0%,0%,0%);fill-opacity:1;stroke-width:0.708661;stroke-linecap:round;stroke-linejoin:round;stroke:rgb(0%,0%,0%);stroke-opacity:1;stroke-miterlimit:10;" d="M 353.09375 255.667969 C 353.09375 261.121094 344.914062 261.121094 344.914062 255.667969 C 344.914062 250.214844 353.09375 250.214844 353.09375 255.667969 "/>
<path style="fill-rule:nonzero;fill:rgb(0%,0%,0%);fill-opacity:1;stroke-width:0.708661;stroke-linecap:round;stroke-linejoin:round;stroke:rgb(0%,0%,0%);stroke-opacity:1;stroke-miterlimit:10;" d="M 264.820312 391.496094 C 264.820312 396.945312 256.640625 396.945312 256.640625 391.496094 C 256.640625 386.042969 264.820312 386.042969 264.820312 391.496094 "/>
<path style="fill-rule:nonzero;fill:rgb(0%,0%,0%);fill-opacity:1;stroke-width:0.708661;stroke-linecap:round;stroke-linejoin:round;stroke:rgb(0%,0%,0%);stroke-opacity:1;stroke-miterlimit:10;" d="M 708.816406 304.757812 C 708.816406 310.210938 700.640625 310.210938 700.640625 304.757812 C 700.640625 299.304688 708.816406 299.304688 708.816406 304.757812 "/>
<path style="fill-rule:nonzero;fill:rgb(0%,0%,0%);fill-opacity:1;stroke-width:0.708661;stroke-linecap:round;stroke-linejoin:round;stroke:rgb(0%,0%,0%);stroke-opacity:1;stroke-miterlimit:10;" d="M 529.503906 22.910156 C 529.503906 28.359375 521.324219 28.359375 521.324219 22.910156 C 521.324219 17.457031 529.503906 17.457031 529.503906 22.910156 "/>
<path style="fill-rule:nonzero;fill:rgb(0%,0%,0%);fill-opacity:1;stroke-width:0.708661;stroke-linecap:round;stroke-linejoin:round;stroke:rgb(0%,0%,0%);stroke-opacity:1;stroke-miterlimit:10;" d="M 485.746094 236.953125 C 485.746094 242.402344 477.570312 242.402344 477.570312 236.953125 C 477.570312 231.5 485.746094 231.5 485.746094 236.953125 "/>
<path style="fill-rule:nonzero;fill:rgb(0%,0%,0%);fill-opacity:1;stroke-width:0.708661;stroke-linecap:round;stroke-linejoin:round;stroke:rgb(0%,0%,0%);stroke-opacity:1;stroke-miterlimit:10;" d="M 308.671875 209.132812 C 308.671875 214.585938 300.492188 214.585938 300.492188 209.132812 C 300.492188 203.683594 308.671875 203.683594 308.671875 209.132812 "/>
<path style="fill-rule:nonzero;fill:rgb(0%,0%,0%);fill-opacity:1;stroke-width:0.708661;stroke-linecap:round;stroke-linejoin:round;stroke:rgb(0%,0%,0%);stroke-opacity:1;stroke-miterlimit:10;" d="M 523.289062 481.089844 C 523.289062 486.542969 515.109375 486.542969 515.109375 481.089844 C 515.109375 475.640625 523.289062 475.640625 523.289062 481.089844 "/>
<path style="fill-rule:nonzero;fill:rgb(0%,0%,0%);fill-opacity:1;stroke-width:0.708661;stroke-linecap:round;stroke-linejoin:round;stroke:rgb(0%,0%,0%);stroke-opacity:1;stroke-miterlimit:10;" d="M 415.890625 392.792969 C 415.890625 398.246094 407.710938 398.246094 407.710938 392.792969 C 407.710938 387.339844 415.890625 387.339844 415.890625 392.792969 "/>
<path style="fill-rule:nonzero;fill:rgb(0%,0%,0%);fill-opacity:1;stroke-width:0.708661;stroke-linecap:round;stroke-linejoin:round;stroke:rgb(0%,0%,0%);stroke-opacity:1;stroke-miterlimit:10;" d="M 195.101562 289.839844 C 195.101562 295.289062 186.925781 295.289062 186.925781 289.839844 C 186.925781 284.386719 195.101562 284.386719 195.101562 289.839844 "/>
<path style="fill-rule:nonzero;fill:rgb(0%,0%,0%);fill-opacity:1;stroke-width:0.708661;stroke-linecap:round;stroke-linejoin:round;stroke:rgb(0%,0%,0%);stroke-opacity:1;stroke-miterlimit:10;" d="M 374.527344 204.558594 C 374.527344 210.011719 366.347656 210.011719 366.347656 204.558594 C 366.347656 199.109375 374.527344 199.109375 374.527344 204.558594 "/>
</g>
</svg>
