<?xml version="1.0" encoding="UTF-8"?>
<svg xmlns="http://www.w3.org/2000/svg" xmlns:xlink="http://www.w3.org/1999/xlink" width="756pt" height="504pt" viewBox="0 0 756 504" version="1.1">
<g id="surface19">
<rect x="0" y="0" width="756" height="504" style="fill:rgb(100%,100%,100%);fill-opacity:1;stroke:none;"/>
<path style="fill:none;stroke-width:2.774144;stroke-linecap:butt;stroke-linejoin:round;stroke:rgb(90.196078%,25.490196%,45.098039%);stroke-opacity:1;stroke-miterlimit:10;" d="M 34.363281 327.5625 L 43.0625 325.796875 L 51.761719 324.027344 L 60.460938 322.261719 L 69.164062 320.492188 L 77.863281 318.726562 L 86.5625 316.957031 L 95.261719 315.191406 L 103.960938 313.421875 L 112.660156 311.65625 L 121.359375 309.886719 L 130.058594 308.121094 L 138.757812 306.351562 L 147.460938 304.585938 L 156.160156 302.816406 L 164.859375 301.050781 L 173.558594 299.28125 L 182.257812 297.515625 L 190.957031 295.746094 L 199.65625 293.980469 L 208.355469 292.210938 L 217.054688 290.445312 L 225.757812 288.675781 L 234.457031 286.910156 L 243.15625 285.140625 L 251.855469 283.375 L 260.554688 281.605469 L 269.253906 279.839844 L 277.953125 278.070312 L 286.652344 276.304688 L 295.351562 274.535156 L 304.054688 272.769531 L 312.753906 271 L 321.453125 269.234375 L 330.152344 267.464844 L 338.851562 265.699219 L 347.550781 263.929688 L 356.25 262.164062 L 364.949219 260.394531 L 373.648438 258.628906 L 382.351562 256.859375 L 391.050781 255.089844 L 399.75 253.324219 L 408.449219 251.554688 L 417.148438 249.789062 L 425.847656 248.019531 L 434.546875 246.253906 L 443.246094 244.484375 L 451.945312 242.71875 L 460.648438 240.949219 L 469.347656 239.183594 L 478.046875 237.414062 L 486.746094 235.648438 L 495.445312 233.878906 L 504.144531 232.113281 L 512.84375 230.34375 L 521.542969 228.578125 L 530.242188 226.808594 L 538.945312 225.042969 L 547.644531 223.273438 L 556.34375 221.507812 L 565.042969 219.738281 L 573.742188 217.972656 L 582.441406 216.203125 L 591.140625 214.4375 L 599.839844 212.667969 L 608.539062 210.902344 L 617.242188 209.132812 L 625.941406 207.367188 L 634.640625 205.597656 L 643.339844 203.832031 L 652.039062 202.0625 L 660.738281 200.296875 L 669.4375 198.527344 L 678.136719 196.761719 L 686.835938 194.992188 L 695.539062 193.226562 L 704.238281 191.457031 L 712.9375 189.691406 L 721.636719 187.921875 "/>
<path style="fill-rule:nonzero;fill:rgb(0%,0%,0%);fill-opacity:1;stroke-width:0.708661;stroke-linecap:round;stroke-linejoin:round;stroke:rgb(0%,0%,0%);stroke-opacity:1;stroke-miterlimit:10;" d="M 538.832031 122.277344 C 538.832031 127.730469 530.65625 127.730469 530.65625 122.277344 C 530.65625 116.828125 538.832031 116.828125 538.832031 122.277344 "/>
<path style="fill-rule:nonzero;fill:rgb(0%,0%,0%);fill-opacity:1;stroke-width:0.708661;stroke-linecap:round;stroke-linejoin:round;stroke:rgb(0%,0%,0%);stroke-opacity:1;stroke-miterlimit:10;" d="M 646.496094 252.457031 C 646.496094 257.910156 638.320312 257.910156 638.320312 252.457031 C 638.320312 247.007812 646.496094 247.007812 646.496094 252.457031 "/>
<path style="fill-rule:nonzero;fill:rgb(0%,0%,0%);fill-opacity:1;stroke-width:0.708661;stroke-linecap:round;stroke-linejoin:round;stroke:rgb(0%,0%,0%);stroke-opacity:1;stroke-miterlimit:10;" d="M 566.695312 233.578125 C 566.695312 239.03125 558.519531 239.03125 558.519531 233.578125 C 558.519531 228.128906 566.695312 228.128906 566.695312 233.578125 "/>
<path style="fill-rule:nonzero;fill:rgb(0%,0%,0%);fill-opacity:1;stroke-width:0.708661;stroke-linecap:round;stroke-linejoin:round;stroke:rgb(0%,0%,0%);stroke-opacity:1;stroke-miterlimit:10;" d="M 653.695312 28.5625 C 653.695312 34.015625 645.515625 34.015625 645.515625 28.5625 C 645.515625 23.109375 653.695312 23.109375 653.695312 28.5625 "/>
<path style="fill-rule:nonzero;fill:rgb(0%,0%,0%);fill-opacity:1;stroke-width:0.708661;stroke-linecap:round;stroke-linejoin:round;stroke:rgb(0%,0%,0%);stroke-opacity:1;stroke-miterlimit:10;" d="M 355.007812 275.769531 C 355.007812 281.222656 346.828125 281.222656 346.828125 275.769531 C 346.828125 270.316406 355.007812 270.316406 355.007812 275.769531 "/>
<path style="fill-rule:nonzero;fill:rgb(0%,0%,0%);fill-opacity:1;stroke-width:0.708661;stroke-linecap:round;stroke-linejoin:round;stroke:rgb(0%,0%,0%);stroke-opacity:1;stroke-miterlimit:10;" d="M 153.324219 329.082031 C 153.324219 334.535156 145.144531 334.535156 145.144531 329.082031 C 145.144531 323.628906 153.324219 323.628906 153.324219 329.082031 "/>
<path style="fill-rule:nonzero;fill:rgb(0%,0%,0%);fill-opacity:1;stroke-width:0.708661;stroke-linecap:round;stroke-linejoin:round;stroke:rgb(0%,0%,0%);stroke-opacity:1;stroke-miterlimit:10;" d="M 263.667969 196.90625 C 263.667969 202.355469 255.492188 202.355469 255.492188 196.90625 C 255.492188 191.453125 263.667969 191.453125 263.667969 196.90625 "/>
<path style="fill-rule:nonzero;fill:rgb(0%,0%,0%);fill-opacity:1;stroke-width:0.708661;stroke-linecap:round;stroke-linejoin:round;stroke:rgb(0%,0%,0%);stroke-opacity:1;stroke-miterlimit:10;" d="M 391.675781 359.910156 C 391.675781 365.363281 383.496094 365.363281 383.496094 359.910156 C 383.496094 354.460938 391.675781 354.460938 391.675781 359.910156 "/>
<path style="fill-rule:nonzero;fill:rgb(0%,0%,0%);fill-opacity:1;stroke-width:0.708661;stroke-linecap:round;stroke-linejoin:round;stroke:rgb(0%,0%,0%);stroke-opacity:1;stroke-miterlimit:10;" d="M 543.5625 379.710938 C 543.5625 385.164062 535.382812 385.164062 535.382812 379.710938 C 535.382812 374.257812 543.5625 374.257812 543.5625 379.710938 "/>
<path style="fill-rule:nonzero;fill:rgb(0%,0%,0%);fill-opacity:1;stroke-width:0.708661;stroke-linecap:round;stroke-linejoin:round;stroke:rgb(0%,0%,0%);stroke-opacity:1;stroke-miterlimit:10;" d="M 725.726562 288.808594 C 725.726562 294.261719 717.546875 294.261719 717.546875 288.808594 C 717.546875 283.359375 725.726562 283.359375 725.726562 288.808594 "/>
<path style="fill-rule:nonzero;fill:rgb(0%,0%,0%);fill-opacity:1;stroke-width:0.708661;stroke-linecap:round;stroke-linejoin:round;stroke:rgb(0%,0%,0%);stroke-opacity:1;stroke-miterlimit:10;" d="M 61.671875 264.816406 C 61.671875 270.265625 53.492188 270.265625 53.492188 264.816406 C 53.492188 259.363281 61.671875 259.363281 61.671875 264.816406 "/>
<path style="fill-rule:nonzero;fill:rgb(0%,0%,0%);fill-opacity:1;stroke-width:0.708661;stroke-linecap:round;stroke-linejoin:round;stroke:rgb(0%,0%,0%);stroke-opacity:1;stroke-miterlimit:10;" d="M 143.59375 472.519531 C 143.59375 477.972656 135.414062 477.972656 135.414062 472.519531 C 135.414062 467.070312 143.59375 467.070312 143.59375 472.519531 "/>
<path style="fill-rule:nonzero;fill:rgb(0%,0%,0%);fill-opacity:1;stroke-width:0.708661;stroke-linecap:round;stroke-linejoin:round;stroke:rgb(0%,0%,0%);stroke-opacity:1;stroke-miterlimit:10;" d="M 549.109375 138.425781 C 549.109375 143.878906 540.929688 143.878906 540.929688 138.425781 C 540.929688 132.976562 549.109375 132.976562 549.109375 138.425781 "/>
<path style="fill-rule:nonzero;fill:rgb(0%,0%,0%);fill-opacity:1;stroke-width:0.708661;stroke-linecap:round;stroke-linejoin:round;stroke:rgb(0%,0%,0%);stroke-opacity:1;stroke-miterlimit:10;" d="M 38.453125 407.855469 C 38.453125 413.308594 30.273438 413.308594 30.273438 407.855469 C 30.273438 402.402344 38.453125 402.402344 38.453125 407.855469 "/>
<path style="fill-rule:nonzero;fill:rgb(0%,0%,0%);fill-opacity:1;stroke-width:0.708661;stroke-linecap:round;stroke-linejoin:round;stroke:rgb(0%,0%,0%);stroke-opacity:1;stroke-miterlimit:10;" d="M 309.625 350.191406 C 309.625 355.644531 301.449219 355.644531 301.449219 350.191406 C 301.449219 344.742188 309.625 344.742188 309.625 350.191406 "/>
<path style="fill-rule:nonzero;fill:rgb(0%,0%,0%);fill-opacity:1;stroke-width:0.708661;stroke-linecap:round;stroke-linejoin:round;stroke:rgb(0%,0%,0%);stroke-opacity:1;stroke-miterlimit:10;" d="M 359.1875 217.292969 C 359.1875 222.746094 351.011719 222.746094 351.011719 217.292969 C 351.011719 211.84375 359.1875 211.84375 359.1875 217.292969 "/>
<path style="fill-rule:nonzero;fill:rgb(0%,0%,0%);fill-opacity:1;stroke-width:0.708661;stroke-linecap:round;stroke-linejoin:round;stroke:rgb(0%,0%,0%);stroke-opacity:1;stroke-miterlimit:10;" d="M 307.5 92.589844 C 307.5 98.039062 299.320312 98.039062 299.320312 92.589844 C 299.320312 87.136719 307.5 87.136719 307.5 92.589844 "/>
<path style="fill-rule:nonzero;fill:rgb(0%,0%,0%);fill-opacity:1;stroke-width:0.708661;stroke-linecap:round;stroke-linejoin:round;stroke:rgb(0%,0%,0%);stroke-opacity:1;stroke-miterlimit:10;" d="M 317.46875 103.539062 C 317.46875 108.988281 309.292969 108.988281 309.292969 103.539062 C 309.292969 98.085938 317.46875 98.085938 317.46875 103.539062 "/>
<path style="fill-rule:nonzero;fill:rgb(0%,0%,0%);fill-opacity:1;stroke-width:0.708661;stroke-linecap:round;stroke-linejoin:round;stroke:rgb(0%,0%,0%);stroke-opacity:1;stroke-miterlimit:10;" d="M 162.078125 230.953125 C 162.078125 236.402344 153.898438 236.402344 153.898438 230.953125 C 153.898438 225.5 162.078125 225.5 162.078125 230.953125 "/>
<path style="fill-rule:nonzero;fill:rgb(0%,0%,0%);fill-opacity:1;stroke-width:0.708661;stroke-linecap:round;stroke-linejoin:round;stroke:rgb(0%,0%,0%);stroke-opacity:1;stroke-miterlimit:10;" d="M 699.253906 99.625 C 699.253906 105.078125 691.074219 105.078125 691.074219 99.625 C 691.074219 94.175781 699.253906 94.175781 699.253906 99.625 "/>
<path style="fill-rule:nonzero;fill:rgb(0%,0%,0%);fill-opacity:1;stroke-width:0.708661;stroke-linecap:round;stroke-linejoin:round;stroke:rgb(0%,0%,0%);stroke-opacity:1;stroke-miterlimit:10;" d="M 353.09375 255.667969 C 353.09375 261.121094 344.914062 261.121094 344.914062 255.667969 C 344.914062 250.214844 353.09375 250.214844 353.09375 255.667969 "/>
<path style="fill-rule:nonzero;fill:rgb(0%,0%,0%);fill-opacity:1;stroke-width:0.708661;stroke-linecap:round;stroke-linejoin:round;stroke:rgb(0%,0%,0%);stroke-opacity:1;stroke-miterlimit:10;" d="M 264.820312 391.496094 C 264.820312 396.945312 256.640625 396.945312 256.640625 391.496094 C 256.640625 386.042969 264.820312 386.042969 264.820312 391.496094 "/>
<path style="fill-rule:nonzero;fill:rgb(0%,0%,0%);fill-opacity:1;stroke-width:0.708661;stroke-linecap:round;stroke-linejoin:round;stroke:rgb(0%,0%,0%);stroke-opacity:1;stroke-miterlimit:10;" d="M 708.816406 304.757812 C 708.816406 310.210938 700.640625 310.210938 700.640625 304.757812 C 700.640625 299.304688 708.816406 299.304688 708.816406 304.757812 "/>
<path style="fill-rule:nonzero;fill:rgb(0%,0%,0%);fill-opacity:1;stroke-width:0.708661;stroke-linecap:round;stroke-linejoin:round;stroke:rgb(0%,0%,0%);stroke-opacity:1;stroke-miterlimit:10;" d="M 529.503906 22.910156 C 529.503906 28.359375 521.324219 28.359375 521.324219 22.910156 C 521.324219 17.457031 529.503906 17.457031 529.503906 22.910156 "/>
<path style="fill-rule:nonzero;fill:rgb(0%,0%,0%);fill-opacity:1;stroke-width:0.708661;stroke-linecap:round;stroke-linejoin:round;stroke:rgb(0%,0%,0%);stroke-opacity:1;stroke-miterlimit:10;" d="M 485.746094 236.953125 C 485.746094 242.402344 477.570312 242.402344 477.570312 236.953125 C 477.570312 231.5 485.746094 231.5 485.746094 236.953125 "/>
<path style="fill-rule:nonzero;fill:rgb(0%,0%,0%);fill-opacity:1;stroke-width:0.708661;stroke-linecap:round;stroke-linejoin:round;stroke:rgb(0%,0%,0%);stroke-opacity:1;stroke-miterlimit:10;" d="M 308.671875 209.132812 C 308.671875 214.585938 300.492188 214.585938 300.492188 209.132812 C 300.492188 203.683594 308.671875 203.683594 308.671875 209.132812 "/>
<path style="fill-rule:nonzero;fill:rgb(0%,0%,0%);fill-opacity:1;stroke-width:0.708661;stroke-linecap:round;stroke-linejoin:round;stroke:rgb(0%,0%,0%);stroke-opacity:1;stroke-miterlimit:10;" d="M 523.289062 481.089844 C 523.289062 486.542969 515.109375 486.542969 515.109375 481.089844 C 515.109375 475.640625 523.289062 475.640625 523.289062 481.089844 "/>
<path style="fill-rule:nonzero;fill:rgb(0%,0%,0%);fill-opacity:1;stroke-width:0.708661;stroke-linecap:round;stroke-linejoin:round;stroke:rgb(0%,0%,0%);stroke-opacity:1;stroke-miterlimit:10;" d="M 415.890625 392.792969 C 415.890625 398.246094 407.710938 398.246094 407.710938 392.792969 C 407.710938 387.339844 415.890625 387.339844 415.890625 392.792969 "/>
<path style="fill-rule:nonzero;fill:rgb(0%,0%,0%);fill-opacity:1;stroke-width:0.708661;stroke-linecap:round;stroke-linejoin:round;stroke:rgb(0%,0%,0%);stroke-opacity:1;stroke-miterlimit:10;" d="M 195.101562 289.839844 C 195.101562 295.289062 186.925781 295.289062 186.925781 289.839844 C 186.925781 284.386719 195.101562 284.386719 195.101562 289.839844 "/>
<path style="fill-rule:nonzero;fill:rgb(0%,0%,0%);fill-opacity:1;stroke-width:0.708661;stroke-linecap:round;stroke-linejoin:round;stroke:rgb(0%,0%,0%);stroke-opacity:1;stroke-miterlimit:10;" d="M 374.527344 204.558594 C 374.527344 210.011719 366.347656 210.011719 366.347656 204.558594 C 366.347656 199.109375 374.527344 199.109375 374.527344 204.558594 "/>
</g>
</svg>
