<?xml version="1.0" encoding="UTF-8"?>
<svg xmlns="http://www.w3.org/2000/svg" xmlns:xlink="http://www.w3.org/1999/xlink" width="756pt" height="504pt" viewBox="0 0 756 504" version="1.1">
<g id="surface534">
<rect x="0" y="0" width="756" height="504" style="fill:rgb(100%,100%,100%);fill-opacity:1;stroke:none;"/>
<path style="fill-rule:nonzero;fill:rgb(0%,0%,0%);fill-opacity:1;stroke-width:0.708661;stroke-linecap:round;stroke-linejoin:round;stroke:rgb(0%,0%,0%);stroke-opacity:1;stroke-miterlimit:10;" d="M 538.832031 121.125 C 538.832031 126.578125 530.65625 126.578125 530.65625 121.125 C 530.65625 115.671875 538.832031 115.671875 538.832031 121.125 "/>
<path style="fill-rule:nonzero;fill:rgb(0%,0%,0%);fill-opacity:1;stroke-width:0.708661;stroke-linecap:round;stroke-linejoin:round;stroke:rgb(0%,0%,0%);stroke-opacity:1;stroke-miterlimit:10;" d="M 646.496094 201.867188 C 646.496094 207.320312 638.320312 207.320312 638.320312 201.867188 C 638.320312 196.417969 646.496094 196.417969 646.496094 201.867188 "/>
<path style="fill-rule:nonzero;fill:rgb(0%,0%,0%);fill-opacity:1;stroke-width:0.708661;stroke-linecap:round;stroke-linejoin:round;stroke:rgb(0%,0%,0%);stroke-opacity:1;stroke-miterlimit:10;" d="M 566.695312 203.535156 C 566.695312 208.988281 558.519531 208.988281 558.519531 203.535156 C 558.519531 198.082031 566.695312 198.082031 566.695312 203.535156 "/>
<path style="fill-rule:nonzero;fill:rgb(0%,0%,0%);fill-opacity:1;stroke-width:0.708661;stroke-linecap:round;stroke-linejoin:round;stroke:rgb(0%,0%,0%);stroke-opacity:1;stroke-miterlimit:10;" d="M 653.695312 22.910156 C 653.695312 28.359375 645.515625 28.359375 645.515625 22.910156 C 645.515625 17.457031 653.695312 17.457031 653.695312 22.910156 "/>
<path style="fill-rule:nonzero;fill:rgb(0%,0%,0%);fill-opacity:1;stroke-width:0.708661;stroke-linecap:round;stroke-linejoin:round;stroke:rgb(0%,0%,0%);stroke-opacity:1;stroke-miterlimit:10;" d="M 355.007812 281.089844 C 355.007812 286.539062 346.828125 286.539062 346.828125 281.089844 C 346.828125 275.636719 355.007812 275.636719 355.007812 281.089844 "/>
<path style="fill-rule:nonzero;fill:rgb(0%,0%,0%);fill-opacity:1;stroke-width:0.708661;stroke-linecap:round;stroke-linejoin:round;stroke:rgb(0%,0%,0%);stroke-opacity:1;stroke-miterlimit:10;" d="M 153.324219 365.375 C 153.324219 370.824219 145.144531 370.824219 145.144531 365.375 C 145.144531 359.921875 153.324219 359.921875 153.324219 365.375 "/>
<path style="fill-rule:nonzero;fill:rgb(0%,0%,0%);fill-opacity:1;stroke-width:0.708661;stroke-linecap:round;stroke-linejoin:round;stroke:rgb(0%,0%,0%);stroke-opacity:1;stroke-miterlimit:10;" d="M 263.667969 237.617188 C 263.667969 243.066406 255.492188 243.066406 255.492188 237.617188 C 255.492188 232.164062 263.667969 232.164062 263.667969 237.617188 "/>
<path style="fill-rule:nonzero;fill:rgb(0%,0%,0%);fill-opacity:1;stroke-width:0.708661;stroke-linecap:round;stroke-linejoin:round;stroke:rgb(0%,0%,0%);stroke-opacity:1;stroke-miterlimit:10;" d="M 391.675781 340.140625 C 391.675781 345.589844 383.496094 345.589844 383.496094 340.140625 C 383.496094 334.6875 391.675781 334.6875 391.675781 340.140625 "/>
<path style="fill-rule:nonzero;fill:rgb(0%,0%,0%);fill-opacity:1;stroke-width:0.708661;stroke-linecap:round;stroke-linejoin:round;stroke:rgb(0%,0%,0%);stroke-opacity:1;stroke-miterlimit:10;" d="M 543.5625 324.179688 C 543.5625 329.632812 535.382812 329.632812 535.382812 324.179688 C 535.382812 318.726562 543.5625 318.726562 543.5625 324.179688 "/>
<path style="fill-rule:nonzero;fill:rgb(0%,0%,0%);fill-opacity:1;stroke-width:0.708661;stroke-linecap:round;stroke-linejoin:round;stroke:rgb(0%,0%,0%);stroke-opacity:1;stroke-miterlimit:10;" d="M 725.726562 214.171875 C 725.726562 219.621094 717.546875 219.621094 717.546875 214.171875 C 717.546875 208.71875 725.726562 208.71875 725.726562 214.171875 "/>
<path style="fill-rule:nonzero;fill:rgb(0%,0%,0%);fill-opacity:1;stroke-width:0.708661;stroke-linecap:round;stroke-linejoin:round;stroke:rgb(0%,0%,0%);stroke-opacity:1;stroke-miterlimit:10;" d="M 61.671875 333.535156 C 61.671875 338.984375 53.492188 338.984375 53.492188 333.535156 C 53.492188 328.082031 61.671875 328.082031 61.671875 333.535156 "/>
<path style="fill-rule:nonzero;fill:rgb(0%,0%,0%);fill-opacity:1;stroke-width:0.708661;stroke-linecap:round;stroke-linejoin:round;stroke:rgb(0%,0%,0%);stroke-opacity:1;stroke-miterlimit:10;" d="M 143.59375 481.089844 C 143.59375 486.542969 135.414062 486.542969 135.414062 481.089844 C 135.414062 475.640625 143.59375 475.640625 143.59375 481.089844 "/>
<path style="fill-rule:nonzero;fill:rgb(0%,0%,0%);fill-opacity:1;stroke-width:0.708661;stroke-linecap:round;stroke-linejoin:round;stroke:rgb(0%,0%,0%);stroke-opacity:1;stroke-miterlimit:10;" d="M 549.109375 131.78125 C 549.109375 137.234375 540.929688 137.234375 540.929688 131.78125 C 540.929688 126.332031 549.109375 126.332031 549.109375 131.78125 "/>
<path style="fill-rule:nonzero;fill:rgb(0%,0%,0%);fill-opacity:1;stroke-width:0.708661;stroke-linecap:round;stroke-linejoin:round;stroke:rgb(0%,0%,0%);stroke-opacity:1;stroke-miterlimit:10;" d="M 38.453125 451.746094 C 38.453125 457.199219 30.273438 457.199219 30.273438 451.746094 C 30.273438 446.296875 38.453125 446.296875 38.453125 451.746094 "/>
<path style="fill-rule:nonzero;fill:rgb(0%,0%,0%);fill-opacity:1;stroke-width:0.708661;stroke-linecap:round;stroke-linejoin:round;stroke:rgb(0%,0%,0%);stroke-opacity:1;stroke-miterlimit:10;" d="M 309.625 349.535156 C 309.625 354.984375 301.449219 354.984375 301.449219 349.535156 C 301.449219 344.082031 309.625 344.082031 309.625 349.535156 "/>
<path style="fill-rule:nonzero;fill:rgb(0%,0%,0%);fill-opacity:1;stroke-width:0.708661;stroke-linecap:round;stroke-linejoin:round;stroke:rgb(0%,0%,0%);stroke-opacity:1;stroke-miterlimit:10;" d="M 359.1875 233.871094 C 359.1875 239.320312 351.011719 239.320312 351.011719 233.871094 C 351.011719 228.417969 359.1875 228.417969 359.1875 233.871094 "/>
<path style="fill-rule:nonzero;fill:rgb(0%,0%,0%);fill-opacity:1;stroke-width:0.708661;stroke-linecap:round;stroke-linejoin:round;stroke:rgb(0%,0%,0%);stroke-opacity:1;stroke-miterlimit:10;" d="M 307.5 145.800781 C 307.5 151.25 299.320312 151.25 299.320312 145.800781 C 299.320312 140.347656 307.5 140.347656 307.5 145.800781 "/>
<path style="fill-rule:nonzero;fill:rgb(0%,0%,0%);fill-opacity:1;stroke-width:0.708661;stroke-linecap:round;stroke-linejoin:round;stroke:rgb(0%,0%,0%);stroke-opacity:1;stroke-miterlimit:10;" d="M 317.46875 152.398438 C 317.46875 157.851562 309.292969 157.851562 309.292969 152.398438 C 309.292969 146.949219 317.46875 146.949219 317.46875 152.398438 "/>
<path style="fill-rule:nonzero;fill:rgb(0%,0%,0%);fill-opacity:1;stroke-width:0.708661;stroke-linecap:round;stroke-linejoin:round;stroke:rgb(0%,0%,0%);stroke-opacity:1;stroke-miterlimit:10;" d="M 162.078125 285.769531 C 162.078125 291.222656 153.898438 291.222656 153.898438 285.769531 C 153.898438 280.320312 162.078125 280.320312 162.078125 285.769531 "/>
<path style="fill-rule:nonzero;fill:rgb(0%,0%,0%);fill-opacity:1;stroke-width:0.708661;stroke-linecap:round;stroke-linejoin:round;stroke:rgb(0%,0%,0%);stroke-opacity:1;stroke-miterlimit:10;" d="M 699.253906 69.742188 C 699.253906 75.191406 691.074219 75.191406 691.074219 69.742188 C 691.074219 64.289062 699.253906 64.289062 699.253906 69.742188 "/>
<path style="fill-rule:nonzero;fill:rgb(0%,0%,0%);fill-opacity:1;stroke-width:0.708661;stroke-linecap:round;stroke-linejoin:round;stroke:rgb(0%,0%,0%);stroke-opacity:1;stroke-miterlimit:10;" d="M 353.09375 265.554688 C 353.09375 271.007812 344.914062 271.007812 344.914062 265.554688 C 344.914062 260.105469 353.09375 260.105469 353.09375 265.554688 "/>
<path style="fill-rule:nonzero;fill:rgb(0%,0%,0%);fill-opacity:1;stroke-width:0.708661;stroke-linecap:round;stroke-linejoin:round;stroke:rgb(0%,0%,0%);stroke-opacity:1;stroke-miterlimit:10;" d="M 264.820312 391.609375 C 264.820312 397.058594 256.640625 397.058594 256.640625 391.609375 C 256.640625 386.15625 264.820312 386.15625 264.820312 391.609375 "/>
<path style="fill-rule:nonzero;fill:rgb(0%,0%,0%);fill-opacity:1;stroke-width:0.708661;stroke-linecap:round;stroke-linejoin:round;stroke:rgb(0%,0%,0%);stroke-opacity:1;stroke-miterlimit:10;" d="M 708.816406 230.335938 C 708.816406 235.785156 700.640625 235.785156 700.640625 230.335938 C 700.640625 224.882812 708.816406 224.882812 708.816406 230.335938 "/>
<path style="fill-rule:nonzero;fill:rgb(0%,0%,0%);fill-opacity:1;stroke-width:0.708661;stroke-linecap:round;stroke-linejoin:round;stroke:rgb(0%,0%,0%);stroke-opacity:1;stroke-miterlimit:10;" d="M 529.503906 44.308594 C 529.503906 49.761719 521.324219 49.761719 521.324219 44.308594 C 521.324219 38.855469 529.503906 38.855469 529.503906 44.308594 "/>
<path style="fill-rule:nonzero;fill:rgb(0%,0%,0%);fill-opacity:1;stroke-width:0.708661;stroke-linecap:round;stroke-linejoin:round;stroke:rgb(0%,0%,0%);stroke-opacity:1;stroke-miterlimit:10;" d="M 485.746094 223.078125 C 485.746094 228.527344 477.570312 228.527344 477.570312 223.078125 C 477.570312 217.625 485.746094 217.625 485.746094 223.078125 "/>
<path style="fill-rule:nonzero;fill:rgb(0%,0%,0%);fill-opacity:1;stroke-width:0.708661;stroke-linecap:round;stroke-linejoin:round;stroke:rgb(0%,0%,0%);stroke-opacity:1;stroke-miterlimit:10;" d="M 308.671875 237.929688 C 308.671875 243.382812 300.492188 243.382812 300.492188 237.929688 C 300.492188 232.476562 308.671875 232.476562 308.671875 237.929688 "/>
<path style="fill-rule:nonzero;fill:rgb(0%,0%,0%);fill-opacity:1;stroke-width:0.708661;stroke-linecap:round;stroke-linejoin:round;stroke:rgb(0%,0%,0%);stroke-opacity:1;stroke-miterlimit:10;" d="M 523.289062 408.757812 C 523.289062 414.210938 515.109375 414.210938 515.109375 408.757812 C 515.109375 403.308594 523.289062 403.308594 523.289062 408.757812 "/>
<path style="fill-rule:nonzero;fill:rgb(0%,0%,0%);fill-opacity:1;stroke-width:0.708661;stroke-linecap:round;stroke-linejoin:round;stroke:rgb(0%,0%,0%);stroke-opacity:1;stroke-miterlimit:10;" d="M 415.890625 361.152344 C 415.890625 366.605469 407.710938 366.605469 407.710938 361.152344 C 407.710938 355.703125 415.890625 355.703125 415.890625 361.152344 "/>
<path style="fill-rule:nonzero;fill:rgb(0%,0%,0%);fill-opacity:1;stroke-width:0.708661;stroke-linecap:round;stroke-linejoin:round;stroke:rgb(0%,0%,0%);stroke-opacity:1;stroke-miterlimit:10;" d="M 195.101562 325.5625 C 195.101562 331.015625 186.925781 331.015625 186.925781 325.5625 C 186.925781 320.113281 195.101562 320.113281 195.101562 325.5625 "/>
<path style="fill-rule:nonzero;fill:rgb(0%,0%,0%);fill-opacity:1;stroke-width:0.708661;stroke-linecap:round;stroke-linejoin:round;stroke:rgb(0%,0%,0%);stroke-opacity:1;stroke-miterlimit:10;" d="M 374.527344 220.582031 C 374.527344 226.03125 366.347656 226.03125 366.347656 220.582031 C 366.347656 215.128906 374.527344 215.128906 374.527344 220.582031 "/>
</g>
</svg>
